<?xml version="1.0" encoding="utf-8"?>
<!-- Generator: Adobe Illustrator 21.0.0, SVG Export Plug-In . SVG Version: 6.00 Build 0)  -->
<svg version="1.1" id="Layer_1" xmlns="http://www.w3.org/2000/svg" xmlns:xlink="http://www.w3.org/1999/xlink" x="0px" y="0px"
	 viewBox="0 0 512 512" style="enable-background:new 0 0 512 512;" xml:space="preserve">
<path d="M256,229.8c8.5,0,9.6,0,12.9,0.2c3.1,0.1,4.8,0.7,5.9,1.1c1.4,0.5,2.6,1.3,3.7,2.4c1.1,1,1.9,2.3,2.4,3.7
	c0.4,1.1,1,2.8,1.1,5.9c0.2,3.4,0.2,4.4,0.2,12.9c0,8.5,0,9.6-0.2,12.9c-0.1,3.1-0.7,4.8-1.1,5.9c-1.1,2.8-3.3,5-6.1,6.1
	c-1.1,0.4-2.8,1-5.9,1.1c-3.4,0.2-4.4,0.2-12.9,0.2s-9.6,0-12.9-0.2c-3.1-0.1-4.8-0.7-5.9-1.1c-1.4-0.5-2.6-1.3-3.7-2.4
	c-1.1-1-1.9-2.3-2.4-3.7c-0.4-1.1-1-2.8-1.1-5.9c-0.2-3.4-0.2-4.4-0.2-12.9c0-8.5,0-9.6,0.2-12.9c0.1-3.1,0.7-4.8,1.1-5.9
	c0.5-1.4,1.3-2.6,2.4-3.7c1-1.1,2.3-1.9,3.7-2.4c1.1-0.4,2.8-1,5.9-1.1C246.4,229.8,247.5,229.8,256,229.8 M256,224
	c-8.7,0-9.8,0-13.2,0.2c-3.4,0.2-5.7,0.7-7.8,1.5c-2.1,0.8-4.1,2.1-5.7,3.7c-1.6,1.6-2.9,3.5-3.7,5.7c-0.8,2-1.3,4.4-1.5,7.8
	c-0.2,3.4-0.2,4.5-0.2,13.2c0,8.7,0,9.8,0.2,13.2c0.2,3.4,0.7,5.7,1.5,7.8c0.8,2.1,2.1,4.1,3.7,5.7c1.6,1.6,3.5,2.9,5.7,3.7
	c2,0.8,4.4,1.3,7.8,1.5c3.4,0.2,4.5,0.2,13.2,0.2s9.8,0,13.2-0.2c3.4-0.2,5.7-0.7,7.8-1.5c4.3-1.7,7.7-5.1,9.4-9.4
	c0.8-2,1.3-4.4,1.5-7.8c0.2-3.4,0.2-4.5,0.2-13.2c0-8.7,0-9.8-0.2-13.2c-0.2-3.4-0.7-5.7-1.5-7.8c-0.8-2.1-2.1-4.1-3.7-5.7
	c-1.6-1.6-3.5-2.9-5.7-3.7c-2-0.8-4.4-1.3-7.8-1.5C265.8,224,264.7,224,256,224L256,224L256,224z"/>
<path d="M256,239.6c-9.1,0-16.4,7.4-16.4,16.4c0,9.1,7.4,16.4,16.4,16.4c9.1,0,16.4-7.4,16.4-16.4l0,0
	C272.4,246.9,265.1,239.6,256,239.6z M256,266.7c-5.9,0-10.7-4.8-10.7-10.7s4.8-10.7,10.7-10.7c5.9,0,10.7,4.8,10.7,10.7
	C266.7,261.9,261.9,266.7,256,266.7z"/>
<circle cx="273.1" cy="238.9" r="3.8"/>
</svg>
